<svg xmlns="http://www.w3.org/2000/svg" viewBox="0 0 24 24" fill="#ff9800" width="24" height="24">
  <path d="M12 2C10.9 2 10 2.9 10 4C10 4.55 10.22 5.05 10.59 5.41L3.41 12.59C2.63 13.37 2.63 14.63 3.41 15.41C4.19 16.19 5.45 16.19 6.23 15.41L13.41 8.23C13.77 8.6 14.27 8.82 14.82 8.82H15.18C15.73 8.82 16.23 8.6 16.59 8.23L21.41 13.05C22.19 13.83 22.19 15.09 21.41 15.87C20.63 16.65 19.37 16.65 18.59 15.87L16.77 14.05C16.41 14.41 15.91 14.63 15.36 14.63H14.64C13.54 14.63 12.63 13.72 12.63 12.63C12.63 11.54 13.54 10.63 14.64 10.63H15.36C15.91 10.63 16.41 10.85 16.77 11.21L18.59 9.39C19.37 8.61 20.63 8.61 21.41 9.39C22.19 10.17 22.19 11.43 21.41 12.21L16.59 17.03C16.23 17.39 15.73 17.61 15.18 17.61H14.82C13.72 17.61 12.81 16.7 12.81 15.61V15.18C12.81 14.63 13.03 14.13 13.39 13.77L8.23 18.93C7.45 19.71 6.19 19.71 5.41 18.93C4.63 18.15 4.63 16.89 5.41 16.11L10.59 10.93C10.22 10.57 10 10.07 10 9.52V9.48C10 8.38 10.91 7.47 12 7.47C13.09 7.47 14 8.38 14 9.48V9.52C14 10.07 13.78 10.57 13.41 10.93L18.59 5.75C19.37 4.97 20.63 4.97 21.41 5.75C22.19 6.53 22.19 7.79 21.41 8.57L16.59 13.39C16.23 13.03 15.73 12.81 15.18 12.81H14.82C14.27 12.81 13.77 13.03 13.41 13.39L8.23 8.21C8.6 7.85 8.82 7.35 8.82 6.8V6.66C8.82 5.56 9.73 4.65 10.82 4.65C11.37 4.65 11.87 4.87 12.23 5.23L14.05 3.41C13.69 3.05 13.47 2.55 13.47 2C13.47 0.9 12.56 0 11.47 0C10.38 0 9.47 0.9 9.47 2C9.47 2.55 9.69 3.05 10.05 3.41L8.23 5.23C7.87 4.87 7.37 4.65 6.82 4.65H6.18C5.08 4.65 4.17 5.56 4.17 6.66V6.8C4.17 7.35 4.39 7.85 4.75 8.21L9.93 13.39C9.57 13.03 9.07 12.81 8.52 12.81H8.18C7.63 12.81 7.13 13.03 6.77 13.39L1.59 8.21C0.81 7.43 0.81 6.17 1.59 5.39C2.37 4.61 3.63 4.61 4.41 5.39L6.23 7.21C6.59 6.85 7.09 6.63 7.64 6.63H8.36C9.46 6.63 10.37 7.54 10.37 8.64C10.37 9.74 9.46 10.65 8.36 10.65H7.64C7.09 10.65 6.59 10.43 6.23 10.07L4.41 11.89C3.63 12.67 2.37 12.67 1.59 11.89C0.81 11.11 0.81 9.85 1.59 9.07L6.77 3.89C7.13 3.53 7.63 3.31 8.18 3.31H8.52C9.62 3.31 10.53 4.22 10.53 5.32V5.76C10.53 6.31 10.31 6.81 9.95 7.17L15.11 2.01C14.75 1.65 14.53 1.15 14.53 0.6V0.34C14.53 -0.76 13.62 -1.67 12.53 -1.67C12 -1.67 11.5 -1.45 11.14 -1.09"/>
  <circle cx="7.5" cy="10.5" r="1.5"/>
  <circle cx="16.5" cy="10.5" r="1.5"/>
  <circle cx="12" cy="17" r="2"/>
</svg>