<svg xmlns="http://www.w3.org/2000/svg" viewBox="0 0 24 24" fill="#9c27b0" width="24" height="24">
  <path d="M15 2C13.89 2 13 2.89 13 4V5H11V4C11 2.89 10.1 2 9 2C7.89 2 7 2.89 7 4V5C5.34 5 4 6.34 4 8V16C4 17.66 5.34 19 7 19V20C7 21.1 7.9 22 9 22H15C16.1 22 17 21.1 17 20V19C18.66 19 20 17.66 20 16V8C20 6.34 18.66 5 17 5V4C17 2.89 16.1 2 15 2ZM9 8C9.55 8 10 8.45 10 9C10 9.55 9.55 10 9 10C8.45 10 8 9.55 8 9C8 8.45 8.45 8 9 8ZM15 8C15.55 8 16 8.45 16 9C16 9.55 15.55 10 15 10C14.45 10 14 9.55 14 9C14 8.45 14.45 8 15 8ZM12 16C10.34 16 9 14.66 9 13H15C15 14.66 13.66 16 12 16Z"/>
</svg>