<svg xmlns="http://www.w3.org/2000/svg" viewBox="0 0 24 24" fill="#8d6e63" width="24" height="24">
  <path d="M18.36 6.64C18.13 6.41 17.87 6.23 17.59 6.09C17.05 3.13 14.44 1 11.5 1C8.31 1 5.69 3.35 5.14 6.39C4.3 7.01 3.75 8.02 3.75 9.13V10.5C3.75 11.88 4.63 13.05 5.86 13.5L6 19C6 20.1 6.9 21 8 21H15C16.1 21 17 20.1 17 19L17.14 13.5C18.37 13.05 19.25 11.88 19.25 10.5V9.13C19.25 8.02 18.7 7.01 17.86 6.39C17.31 3.35 14.69 1 11.5 1C8.56 1 5.95 3.13 5.41 6.09C5.13 6.23 4.87 6.41 4.64 6.64L18.36 6.64Z"/>
</svg>