<svg xmlns="http://www.w3.org/2000/svg" viewBox="0 0 24 24" fill="#2196f3" width="24" height="24">
  <path d="M4.5 12C5.33 12 6 11.33 6 10.5C6 9.67 5.33 9 4.5 9C3.67 9 3 9.67 3 10.5C3 11.33 3.67 12 4.5 12ZM19.5 9C18.67 9 18 9.67 18 10.5C18 11.33 18.67 12 19.5 12C20.33 12 21 11.33 21 10.5C21 9.67 20.33 9 19.5 9ZM12 6C11.17 6 10.5 6.67 10.5 7.5C10.5 8.33 11.17 9 12 9C12.83 9 13.5 8.33 13.5 7.5C13.5 6.67 12.83 6 12 6ZM12 15C11.17 15 10.5 15.67 10.5 16.5C10.5 17.33 11.17 18 12 18C12.83 18 13.5 17.33 13.5 16.5C13.5 15.67 12.83 15 12 15Z"/>
</svg>